<svg xmlns="http://www.w3.org/2000/svg" version="1.1" xmlns:xlink="http://www.w3.org/1999/xlink" width="512" height="512" x="0" y="0" viewBox="0 0 24 24" style="enable-background:new 0 0 512 512" xml:space="preserve" fill-rule="evenodd" class=""><g><path d="M3.75 9V7A3.247 3.247 0 0 1 7 3.75h2a.75.75 0 0 0 0-1.5H7A4.75 4.75 0 0 0 2.25 7v2a.75.75 0 0 0 1.5 0zM15 3.75h2A3.247 3.247 0 0 1 20.25 7v2a.75.75 0 0 0 1.5 0V7A4.75 4.75 0 0 0 17 2.25h-2a.75.75 0 0 0 0 1.5zM2.25 15v2A4.75 4.75 0 0 0 7 21.75h2a.75.75 0 0 0 0-1.5H7A3.247 3.247 0 0 1 3.75 17v-2a.75.75 0 0 0-1.5 0zM15 21.75h2A4.75 4.75 0 0 0 21.75 17v-2a.75.75 0 0 0-1.5 0v2A3.247 3.247 0 0 1 17 20.25h-2a.75.75 0 0 0 0 1.5zM14.75 8.5v1a.75.75 0 0 0 1.5 0v-1a.75.75 0 0 0-1.5 0zM7.75 8.5v1a.75.75 0 0 0 1.5 0v-1a.75.75 0 0 0-1.5 0zM11.75 12.536V10a.75.75 0 0 1 1.5 0v3a.75.75 0 0 1-.415.671l-1 .5a.75.75 0 1 1-.67-1.342zM14.97 14.97a.75.75 0 0 1 1.06 1.06c-.136.136 0 .001-.001.002a5.698 5.698 0 0 1-8.058 0l-.001-.002a.75.75 0 0 1 1.06-1.06c.136.136.001 0 .002.001a4.198 4.198 0 0 0 5.936 0l.002-.001z" fill="#1265a4" opacity="1" data-original="#000000"></path></g></svg>