<svg height="512" viewBox="0 0 42 58" width="512" xmlns="http://www.w3.org/2000/svg"><g id="Page-1" fill="none" fill-rule="evenodd"><g id="091---Program-Push-Notifications" fill-rule="nonzero"><path id="Shape" d="m4 47.87v7.13c0 1.6568542 1.34314575 3 3 3h28c1.6568542 0 3-1.3431458 3-3v-52c0-1.65685425-1.3431458-3-3-3h-28c-1.65685425 0-3 1.34314575-3 3z" fill="#b0d3f0"/><path id="Shape" d="m38 50v5c0 1.6568542-1.3431458 3-3 3h-28c-1.65685425 0-3-1.3431458-3-3v-5c0 1.6568542 1.34314575 3 3 3h28c1.6568542 0 3-1.3431458 3-3z" fill="#3f5c6c"/><path id="Shape" d="m42 10v18c-.0032948 1.1032019-.8967981 1.9967052-2 2h-13l-4.25 3.37c-1.0155302.8398236-2.4844698.8398236-3.5 0l-4.25-3.37h-13c-1.10320187-.0032948-1.9967052-.8967981-2-2v-18c.0032948-1.10320187.89679813-1.9967052 2-2h38c1.1032019.0032948 1.9967052.89679813 2 2z" fill="#3b97d3"/><path id="Shape" d="m18 22v1c0 1.6568542 1.3431458 3 3 3s3-1.3431458 3-3v-1z" fill="#f29c1f"/><path id="Shape" d="m17 16c0-2.209139 1.790861-4 4-4s4 1.790861 4 4v.394c-.0003505.9837251.5568355 1.8826622 1.438 2.32.3441228.1708378.5618307.5218047.562.906v1.38c0 .5522847-.4477153 1-1 1h-10c-.5522847 0-1-.4477153-1-1v-1.38c.0001693-.3841953.2178772-.7351622.562-.906.8811645-.4373378 1.4383505-1.3362749 1.438-2.32z" fill="#f3d55b"/><path id="Shape" d="m13 16c-.0418034.0002923-.0835749-.0023811-.125-.008-.5477838-.0686288-.936322-.5681779-.868-1.116.1477077-1.1902941.5340854-2.3385433 1.136-3.376.2843876-.4596821.882589-.61017 1.3506397-.3397768s.6365131.8637835.3803603 1.3397768c-.467407.806121-.7673904 1.6982487-.882 2.623-.0620615.5007343-.4874344.8767948-.992.877z" fill="#f5efca"/><path id="Shape" d="m29 16c-.503848-.0006461-.9285232-.3760402-.991-.876-.1146096-.9247513-.414593-1.816879-.882-2.623-.2561528-.4759933-.0876904-1.0693836.3803603-1.3397768s1.0662521-.1199053 1.3506397.3397768c.6016915 1.037836.9877319 2.1864336 1.135 3.377.068322.5478221-.3202162 1.0473712-.868 1.116-.0415127.004453-.0832517.0064565-.125.006z" fill="#f5efca"/><path id="Shape" d="m10 40h-2c-.55228475 0-1-.4477153-1-1s.44771525-1 1-1h2c.5522847 0 1 .4477153 1 1s-.4477153 1-1 1z" fill="#fb7b76"/><path id="Shape" d="m34 40h-20c-.5522847 0-1-.4477153-1-1s.4477153-1 1-1h20c.5522847 0 1 .4477153 1 1s-.4477153 1-1 1z" fill="#90bae1"/><path id="Shape" d="m10 44h-2c-.55228475 0-1-.4477153-1-1s.44771525-1 1-1h2c.5522847 0 1 .4477153 1 1s-.4477153 1-1 1z" fill="#fb7b76"/><path id="Shape" d="m25 44h-11c-.5522847 0-1-.4477153-1-1s.4477153-1 1-1h11c.5522847 0 1 .4477153 1 1s-.4477153 1-1 1z" fill="#90bae1"/><path id="Shape" d="m10 48h-2c-.55228475 0-1-.4477153-1-1s.44771525-1 1-1h2c.5522847 0 1 .4477153 1 1s-.4477153 1-1 1z" fill="#fb7b76"/><g fill="#90bae1"><path id="Shape" d="m30 48h-16c-.5522847 0-1-.4477153-1-1s.4477153-1 1-1h16c.5522847 0 1 .4477153 1 1s-.4477153 1-1 1z"/><path id="Shape" d="m34 44h-5c-.5522847 0-1-.4477153-1-1s.4477153-1 1-1h5c.5522847 0 1 .4477153 1 1s-.4477153 1-1 1z"/></g></g></g></svg>