<svg xmlns="http://www.w3.org/2000/svg" version="1.1" xmlns:xlink="http://www.w3.org/1999/xlink" width="512" height="512" x="0" y="0" viewBox="0 0 512 512" style="enable-background:new 0 0 512 512" xml:space="preserve" class=""><g><path fill="#337ecc" d="M184.152 67.773.004 194.461v268.95C.004 490.245 21.758 512 48.594 512h364.379c26.832 0 48.59-21.754 48.59-48.59V194.46L277.413 67.774c-28.086-19.32-65.18-19.32-93.262 0zm0 0" opacity="1" data-original="#80e29d" class=""></path><path fill="#1265a4" d="M461.55 194.465 277.41 321.148c-28.086 19.32-65.18 19.32-93.27 0L0 194.465 184.14 67.773c28.09-19.32 65.184-19.32 93.27 0zm0 0" opacity="1" data-original="#5bbaa3" class=""></path><path fill="#c3edfc" d="M407.996 42.465V231.32l-130.582 89.828c-28.086 19.32-65.18 19.32-93.258 0L53.578 231.32V42.465C53.578 19.008 72.582 0 96.031 0h269.5c23.446 0 42.465 19.008 42.465 42.465zm0 0" opacity="1" data-original="#c3edfc" class=""></path><path fill="#a1d7e5" d="M407.996 193.797v37.523l-130.582 89.828c-28.086 19.32-65.18 19.32-93.258 0L53.578 231.32v-37.523l130.57 89.828c28.086 19.32 65.18 19.32 93.266 0zm0 0" opacity="1" data-original="#a1d7e5" class=""></path><path fill="#1265a4" d="M36.379 467.473a7.822 7.822 0 0 1-6.461-3.399 7.84 7.84 0 0 1 2.012-10.898l147.78-101.668c15.095-10.383 32.755-15.867 51.075-15.867s35.985 5.488 51.078 15.867l147.77 101.672a7.84 7.84 0 0 1 2.012 10.898 7.84 7.84 0 0 1-10.899 2.012l-147.77-101.668c-25.234-17.36-59.144-17.36-84.382 0L40.816 466.09a7.815 7.815 0 0 1-4.437 1.383zm0 0" opacity="1" data-original="#5bbaa3" class=""></path><g fill="#ff557e"><path d="M137.14 143.082c-2.16-3.75-6.956-5.031-10.702-2.867l-9.989 5.765v-11.535a7.835 7.835 0 0 0-7.836-7.836 7.836 7.836 0 0 0-7.84 7.836v11.535l-9.988-5.765a7.828 7.828 0 0 0-10.703 2.867 7.833 7.833 0 0 0 2.867 10.703l9.989 5.77-9.989 5.765a7.833 7.833 0 0 0-2.867 10.703 7.83 7.83 0 0 0 10.703 2.872l9.988-5.77v11.535a7.836 7.836 0 0 0 7.84 7.836 7.835 7.835 0 0 0 7.836-7.836v-11.535l9.989 5.77a7.825 7.825 0 0 0 10.703-2.871 7.833 7.833 0 0 0-2.868-10.704l-9.988-5.765 9.988-5.77c3.75-2.16 5.032-6.953 2.868-10.703zM218.59 145.531a7.837 7.837 0 0 0-10.707-2.867l-9.988 5.766v-11.535a7.835 7.835 0 0 0-7.836-7.836 7.836 7.836 0 0 0-7.84 7.836v11.535l-9.989-5.766c-3.75-2.164-8.542-.879-10.703 2.867a7.837 7.837 0 0 0 2.868 10.707l9.988 5.766-9.988 5.766a7.837 7.837 0 0 0 7.835 13.574l9.989-5.766v11.531a7.836 7.836 0 0 0 7.84 7.836 7.835 7.835 0 0 0 7.836-7.836v-11.53l9.988 5.765a7.84 7.84 0 0 0 10.707-2.867 7.838 7.838 0 0 0-2.871-10.707l-9.989-5.766 9.989-5.766a7.838 7.838 0 0 0 2.87-10.707zM300.035 145.531a7.837 7.837 0 0 0-10.707-2.867l-9.988 5.766v-11.535c0-4.329-3.508-7.836-7.836-7.836s-7.836 3.507-7.836 7.836v11.535l-9.992-5.766a7.835 7.835 0 0 0-10.703 2.867 7.84 7.84 0 0 0 2.867 10.707l9.992 5.766-9.992 5.766a7.839 7.839 0 0 0 3.926 14.625c1.332 0 2.68-.34 3.91-1.051l9.992-5.766v11.531c0 4.328 3.508 7.836 7.836 7.836s7.836-3.507 7.836-7.836v-11.53l9.988 5.765a7.839 7.839 0 0 0 7.84-13.574l-9.992-5.766 9.992-5.766a7.84 7.84 0 0 0 2.867-10.707zM378.613 167.773l-9.992-5.77 9.992-5.765a7.84 7.84 0 0 0 2.867-10.707 7.84 7.84 0 0 0-10.707-2.867l-9.988 5.766v-11.532c0-4.328-3.508-7.84-7.836-7.84s-7.836 3.512-7.836 7.84v11.532l-9.988-5.766a7.84 7.84 0 0 0-10.707 2.867 7.84 7.84 0 0 0 2.867 10.707l9.992 5.766-9.992 5.77a7.836 7.836 0 1 0 7.84 13.57l9.988-5.766v11.535c0 4.328 3.508 7.836 7.836 7.836s7.836-3.508 7.836-7.836v-11.535l9.988 5.766a7.792 7.792 0 0 0 3.914 1.05 7.836 7.836 0 0 0 3.926-14.621zm0 0" fill="#ff557e" opacity="1" data-original="#ff557e"></path></g><path fill="#4b6570" d="M167.547 62.535h126.476a7.836 7.836 0 1 0 0-15.672H167.547c-4.328 0-7.836 3.508-7.836 7.836s3.508 7.836 7.836 7.836zM120.117 93.781h221.34a7.835 7.835 0 0 0 7.836-7.836 7.835 7.835 0 0 0-7.836-7.836h-221.34a7.835 7.835 0 0 0-7.836 7.836 7.835 7.835 0 0 0 7.836 7.836zm0 0" opacity="1" data-original="#4b6570"></path></g></svg>