<svg xmlns="http://www.w3.org/2000/svg" xmlns:xlink="http://www.w3.org/1999/xlink" viewBox="0 0 32 32" width="70" height="70" style="" filter="none">
    
    <g>
    <path d="M16.768 32c-3.392 0-6.144-0.672-8.736-2.112-3.008-1.728-4-3.84-3.36-7.52 0.64-4 2.688-7.136 5.92-9.536 0.48-0.384 0.768-0.32 1.152 0.096 1.184 1.28 2.4 2.528 3.552 3.808 0.384 0.448 0.608 0.512 1.024-0.032 0.992-1.248 2.080-2.464 3.104-3.744 0.32-0.416 0.576-0.544 1.088-0.224 3.936 2.496 6.144 6.048 6.88 10.624 0.736 4.64-2.208 6.4-5.472 7.68-1.792 0.704-3.68 0.992-5.152 0.96zM15.712 12.512c-3.36 0-6.208-2.912-6.208-6.304 0.032-3.328 2.816-6.144 6.176-6.208 3.392-0.064 6.336 2.784 6.368 6.144 0 3.52-2.784 6.336-6.336 6.368z" fill="rgba(255,255,255,1)"></path>
    </g>
  </svg>