<svg xmlns="http://www.w3.org/2000/svg" version="1.1" xmlns:xlink="http://www.w3.org/1999/xlink" width="512" height="512" x="0" y="0" viewBox="0 0 8.467 8.467" style="enable-background:new 0 0 512 512" xml:space="preserve" class=""><g><path d="M4.233.529c-.873 0-1.587.714-1.587 1.587s.714 1.588 1.587 1.588c.874 0 1.588-.714 1.588-1.588S5.107.53 4.233.53zm-.529 3.704a2.382 2.382 0 0 0-2.381 2.381v1.323h5.82V6.614a2.382 2.382 0 0 0-2.38-2.381.265.265 0 0 0-.257.329l.493 1.971-.766.765-.765-.765.493-1.971a.265.265 0 0 0-.257-.33z" paint-order="fill markers stroke" fill="#1265a4" opacity="1" data-original="#000000"></path></g></svg>