<svg xmlns="http://www.w3.org/2000/svg" version="1.1" xmlns:xlink="http://www.w3.org/1999/xlink" width="512" height="512" x="0" y="0" viewBox="0 0 32 32" style="enable-background:new 0 0 512 512" xml:space="preserve" class=""><g><g data-name="Layer 39"><path d="M23 14.29a4.44 4.44 0 0 1-7 0 4.44 4.44 0 0 1-7 0A4.46 4.46 0 0 1 5.5 16a4.23 4.23 0 0 1-.5 0v11a1 1 0 0 0 1 1h3v-8a1 1 0 0 1 1-1h4a1 1 0 0 1 1 1v8h11a1 1 0 0 0 1-1V16a4.23 4.23 0 0 1-.5.05 4.46 4.46 0 0 1-3.5-1.76ZM23 23a1 1 0 0 1-1 1h-3a1 1 0 0 1-1-1v-3a1 1 0 0 1 1-1h3a1 1 0 0 1 1 1ZM10 11.5a2.5 2.5 0 0 0 5 0V4h-3l-2 5ZM8 11.5V9l2-5H8a2 2 0 0 0-1.56.75l-3 3.7A2 2 0 0 0 3 9.7v1.66A2.6 2.6 0 0 0 5.24 14 2.5 2.5 0 0 0 8 11.5ZM19.5 14a2.5 2.5 0 0 0 2.5-2.5V9l-2-5h-3v7.5a2.5 2.5 0 0 0 2.5 2.5ZM28.56 8.45l-3-3.7A2 2 0 0 0 24 4h-2l2 5v2.5a2.5 2.5 0 0 0 2.76 2.5A2.6 2.6 0 0 0 29 11.36V9.7a2 2 0 0 0-.44-1.25Z" fill="#bebebe" opacity="1" data-original="#000000" class=""></path></g></g></svg>