<svg xmlns="http://www.w3.org/2000/svg" xmlns:xlink="http://www.w3.org/1999/xlink" viewBox="0 0 32 32" width="16" height="16" style="" filter="none">
    
    <g>
    <path d="M32 6.88c0-1.12-2.176-2.592-4.864-3.040-3.338-0.58-7.182-0.912-11.104-0.912s-7.766 0.332-11.506 0.969l0.402-0.057c-2.72 0.448-4.896 1.92-4.896 3.040 0 0.032 0.032 0.064 0.032 0.096-0.038 0.104-0.061 0.225-0.064 0.351l-0 0.001v3.776c0 0.512 0.448 0.96 0.992 0.96h4.928c0.544 0 0.992-0.448 0.992-0.96v-3.456c6.016-0.8 12.16-0.8 18.176 0v3.68c0 0.544 0.448 0.96 0.992 0.96h4.928c0.544 0 0.992-0.416 0.992-0.96v-3.936c0-0.096-0.032-0.192-0.064-0.288 0.032-0.064 0.064-0.128 0.064-0.224zM29.472 18.464l-5.408-1.824c-0.416-0.128-0.992-0.256-1.568-0.384v-5.984h-2.272v3.52h-8.384v-3.52h-2.304v6.016c-0.512 0.128-0.992 0.224-1.376 0.352l-5.28 1.792c-1.024 0.352-1.856 1.536-1.856 2.624v6.048c-0 0.004-0 0.008-0 0.012 0 1.071 0.869 1.94 1.94 1.94 0.004 0 0.008 0 0.013-0h26.399c0.004 0 0.008 0 0.012 0 1.071 0 1.94-0.869 1.94-1.94 0-0.004 0-0.008-0-0.013v0.001-6.048c0-1.088-0.832-2.272-1.856-2.592zM15.872 26.88c-2.944 0-5.312-2.4-5.312-5.344s2.368-5.344 5.312-5.344c2.976 0 5.344 2.4 5.344 5.344s-2.368 5.344-5.344 5.344zM15.872 18.688c-1.568 0-2.848 1.28-2.848 2.848s1.28 2.848 2.848 2.848c1.6 0 2.88-1.28 2.88-2.848s-1.28-2.848-2.88-2.848z" fill="rgba(108,108,108,1)"></path>
    </g>
  </svg>