<svg xmlns="http://www.w3.org/2000/svg" version="1.1" xmlns:xlink="http://www.w3.org/1999/xlink" width="512" height="512" x="0" y="0" viewBox="0 0 32 32" style="enable-background:new 0 0 512 512" xml:space="preserve"><g><path d="M17.142 15.5c1.18.927 2.255 1.85 2.63 2.75.162.389.213 1.383.225 2.25H21.2a.3.3 0 0 1 .3.3v.9a.3.3 0 0 1-.3.3h-9.4a.3.3 0 0 1-.3-.3v-.9a.3.3 0 0 1 .3-.3h1.203c.011-.867.062-1.861.225-2.25.375-.9 1.45-1.823 2.63-2.75-1.18-.927-2.255-1.85-2.63-2.75-.162-.389-.213-1.383-.225-2.25H11.8a.3.3 0 0 1-.3-.3v-.9a.3.3 0 0 1 .3-.3h9.4a.3.3 0 0 1 .3.3v.9a.3.3 0 0 1-.3.3h-1.203c-.011.867-.062 1.861-.225 2.25-.375.9-1.45 1.823-2.63 2.75zM12.491 4.181l-.133-.5a1.002 1.002 0 0 1 .71-1.224 1.005 1.005 0 0 1 1.224.71l.133.5a1.002 1.002 0 0 1-.71 1.224 1.002 1.002 0 0 1-1.224-.71zM9.688 5.611l-.254-.449a.999.999 0 1 1 1.74-.986l.255.449a1 1 0 1 1-1.741.986zM7.371 7.724l-.347-.347a.999.999 0 1 1 1.414-1.414l.347.347a.999.999 0 1 1-1.414 1.414zM5.694 10.371l-.439-.244a.999.999 0 1 1 .97-1.748l.439.244a1 1 0 1 1-.97 1.748zM4.713 13.361l-.489-.133a1 1 0 1 1 .524-1.93l.489.133a1 1 0 1 1-.524 1.93z" fill="#1265a4" opacity="1" data-original="#000000"></path><path d="M17.018 2.01c7.692.291 13.755 7.047 12.902 14.979-.662 6.156-5.612 11.168-11.759 11.911-6.892.833-12.937-3.601-14.66-9.803l-2.305.26a.15.15 0 0 1-.134-.241l3.191-4.058a.15.15 0 0 1 .21-.025l4.092 3.236a.15.15 0 0 1-.076.266l-2.445.275c1.617 5.094 6.834 8.609 12.648 7.477 4.353-.848 7.836-4.369 8.63-8.732C28.55 10.758 23.491 4.793 16.984 4.51a.496.496 0 0 1-.484-.492V2.516c0-.282.235-.517.518-.506z" fill="#1265a4" opacity="1" data-original="#000000"></path></g></svg>